<svg width="78" height="78" viewBox="0 0 78 78" fill="none" xmlns="http://www.w3.org/2000/svg">
<rect width="78" height="78" fill="#FF6871"/>
<path d="M51.4067 51.4803C52.2598 50.6329 53.6275 50.6329 54.4806 51.4803L60.1194 56.032H60.2173C61.3581 57.185 61.3581 59.0545 60.2173 60.2076C59.0765 61.3607 57.2269 61.3607 56.0861 60.2076L51.4067 54.8446L51.2291 54.6442C50.8983 54.2255 50.7156 53.7035 50.7156 53.1624C50.7156 52.5312 50.9643 51.9259 51.4067 51.4803ZM35.8608 16.9272C40.8822 16.9272 45.6979 18.9434 49.2485 22.5323C52.7992 26.1211 54.7939 30.9886 54.7939 36.064C54.7939 46.633 46.3173 55.2008 35.8608 55.2008C25.4044 55.2008 16.9277 46.633 16.9277 36.064C16.9277 25.4951 25.4044 16.9272 35.8608 16.9272Z" fill="white"/>
</svg>
