<svg width="139" height="35" viewBox="0 0 139 35" fill="none" xmlns="http://www.w3.org/2000/svg">
<path d="M14.8287 1.02821C13.0425 1.23052 10.3633 2.07088 8.8389 2.91125C4.74307 5.13666 1.97146 8.60706 0.585648 13.2291C0.308487 14.1317 -0.0148683 16.5905 0.000529536 17.7421C0.000529536 18.7537 0.308487 21.2281 0.493261 21.8195C0.585648 22.0996 0.78582 22.7688 0.955197 23.2823C1.23236 24.1538 2.57197 26.8928 2.80294 27.0795C2.84913 27.1262 3.0955 27.4375 3.32647 27.7954C3.89619 28.6513 5.38978 30.1764 6.51382 31.0479C7.37611 31.7171 9.80897 33.1333 10.1169 33.1488C10.1939 33.1488 10.2093 32.5575 10.1631 31.7794C10.0553 30.0519 10.3787 27.702 11.0716 25.3054C11.1948 24.9008 11.2872 24.3717 11.2872 24.1383C11.2872 23.9048 11.3488 23.6558 11.4257 23.578C11.5027 23.4846 11.6413 23.0333 11.7183 22.5665C11.8107 22.0996 11.9647 21.3837 12.0725 20.9791C12.2264 20.3722 12.211 20.1387 11.9955 19.4851C11.6875 18.4891 11.6721 16.8707 11.9801 16.0925C12.7038 14.2406 13.5045 13.5403 14.8595 13.5403C16.4916 13.5403 17.2769 14.7853 16.969 16.8707C16.8304 17.82 16.4454 19.3139 16.1991 19.7808C16.1375 19.9209 16.0297 20.3099 15.9835 20.6367C15.9219 20.9791 15.7987 21.4615 15.7217 21.7261C15.5062 22.333 15.9219 23.5158 16.4762 23.9671C16.9998 24.3873 18.093 24.5118 19.0939 24.2783C19.8022 24.1227 20.0947 23.936 20.8338 23.2201C21.7115 22.3486 22.3736 21.337 22.3736 20.8546C22.3736 20.7146 22.4506 20.5278 22.543 20.4344C22.9741 19.9987 23.2051 16.6061 22.8818 15.1744C22.5276 13.6026 21.4344 12.0619 20.0177 11.1593C18.6011 10.2411 15.6756 9.97655 13.874 10.599C12.6114 11.0348 11.4873 11.7662 10.7636 12.6221C10.1169 13.3847 9.43942 14.6297 9.43942 15.0654C9.43942 15.2211 9.36243 15.4234 9.27004 15.5167C9.17766 15.6101 9.06987 16.2015 9.02368 16.8395C8.94669 17.7888 9.00828 18.2246 9.28544 19.1583C9.47021 19.7964 9.80897 20.5434 10.0091 20.8235C10.4249 21.3837 10.4249 21.6016 10.0399 23.0956C9.93215 23.5002 9.74738 23.8737 9.63959 23.9204C8.66953 24.2939 6.6986 21.944 6.03649 19.6096C5.79013 18.7226 5.77473 15.5634 6.02109 14.6297C6.12888 14.2406 6.31365 13.7115 6.43684 13.4314C6.56002 13.1668 6.6678 12.9023 6.6678 12.84C6.6678 12.7778 6.97576 12.2486 7.36071 11.6728C9.36243 8.62262 12.6114 7.00414 16.7226 7.00414C17.6619 7.00414 18.6319 7.06639 18.8937 7.1442C21.0186 7.81338 21.5883 8.03126 22.4198 8.52925C24.0366 9.50968 25.2068 10.848 26.3771 13.089C26.4541 13.2291 26.5618 13.6026 26.608 13.9138C26.6696 14.2251 26.7774 14.5207 26.8544 14.5674C26.9314 14.6141 26.993 15.6257 26.993 16.824C26.993 18.9871 26.839 19.8586 26.1923 21.6327C25.4686 23.578 23.6054 25.7256 21.9117 26.566C20.9416 27.0329 19.1247 27.5464 18.401 27.5464C17.4309 27.5464 15.5216 26.7372 14.998 26.0836C14.7517 25.7879 14.5207 25.8968 14.5207 26.317C14.5207 26.4726 14.4591 26.7372 14.3667 26.8928C14.2897 27.0329 14.1512 27.4686 14.0742 27.8577C13.6276 29.9119 12.9963 31.5771 12.0263 33.1333C11.7337 33.6157 11.9801 33.8958 12.7808 34.0048C13.1811 34.067 13.72 34.176 13.9664 34.2538C14.5823 34.4561 17.9236 34.425 19.0477 34.2226C20.0639 34.0359 21.7115 33.569 22.4506 33.2578C27.1008 31.3281 30.6269 27.4064 32.1513 22.4108C32.9674 19.7497 33.0135 16.6528 32.2744 13.5403C32.0281 12.5288 31.9511 12.2953 31.289 10.7391C30.3343 8.467 28.1786 5.80584 25.9921 4.1718C24.1136 2.77119 22.2658 1.96195 19.3864 1.26164C18.5857 1.0749 15.7371 0.919272 14.8287 1.02821ZM55.8948 6.64621C55.2943 6.73958 54.3396 7.73557 54.0932 8.51369C53.8315 9.36962 54.0932 10.2878 54.8323 11.0037C56.4645 12.6066 59.2977 11.097 58.9435 8.79381C58.728 7.33095 57.4038 6.39721 55.8948 6.64621ZM39.1111 7.56439C38.9725 7.72001 38.9725 26.4882 39.1265 26.706C39.2035 26.8305 39.8656 26.8772 41.159 26.8617L43.0837 26.8461L43.1607 23.687C43.2223 21.1192 43.2839 20.4967 43.4687 20.3877C43.5919 20.3099 44.6389 20.2321 45.7938 20.2321C48.319 20.2321 49.3815 20.0454 50.5363 19.4229C52.0453 18.5981 52.923 17.4153 53.4003 15.5323C53.6929 14.3496 53.6929 13.4936 53.3849 12.2798C53.1077 11.1904 52.9846 10.9258 52.3225 10.0388C51.5064 8.93387 50.6749 8.32694 49.3199 7.84451C48.5654 7.59551 47.9341 7.54882 43.8536 7.50214C41.313 7.47101 39.1727 7.50214 39.1111 7.56439ZM47.5645 11.4394C48.5962 11.7662 49.1043 12.2331 49.3353 13.0734C49.6278 14.1784 49.4123 15.2055 48.7656 15.828C48.0573 16.4972 47.4259 16.6528 45.3626 16.6528C44.0076 16.6528 43.5919 16.6061 43.4071 16.4038C43.2069 16.217 43.1607 15.7657 43.1607 13.9916C43.1607 11.1904 43.1453 11.206 45.2856 11.206C46.2095 11.206 47.1026 11.2993 47.5645 11.4394ZM74.5724 10.5212C74.5724 11.595 74.4954 12.6066 74.4184 12.7778C74.3106 12.9801 74.095 13.0734 73.7255 13.0734C73.4483 13.0734 73.1866 13.1357 73.1558 13.2291C73.1404 13.3069 73.1404 13.8516 73.1866 14.4274C73.2635 15.4545 73.2789 15.47 73.7409 15.579C74.0026 15.6257 74.2952 15.719 74.3876 15.7813C74.5262 15.8591 74.5724 17.0885 74.5724 20.201C74.5724 24.3873 74.5878 24.5429 74.9265 25.1654C75.6348 26.4882 76.7435 26.955 78.9916 26.8928L80.5005 26.8461L80.5467 25.3366L80.5929 23.8115H80.208C79.6229 23.8115 78.7606 23.3446 78.6682 22.9711C78.622 22.7843 78.5758 21.1347 78.5758 19.2828C78.5758 16.7306 78.622 15.8747 78.776 15.7502C78.8838 15.6568 79.3149 15.5634 79.7307 15.5323L80.5005 15.4856V13.1513L79.6537 13.1046C79.1917 13.0734 78.7606 12.9645 78.699 12.8711C78.6374 12.7622 78.5758 11.7507 78.5758 10.6146V8.56038H74.5724V10.5212ZM131.806 8.65375C131.745 8.716 131.698 9.69642 131.698 10.8325C131.698 13.0423 131.683 13.0734 130.836 13.0734C130.451 13.0734 130.451 13.089 130.497 14.2717C130.544 15.4545 130.559 15.4856 130.959 15.5323C131.175 15.5634 131.437 15.6724 131.514 15.7657C131.606 15.8747 131.698 17.7577 131.745 20.1543C131.791 22.4575 131.868 24.5584 131.929 24.8074C132.114 25.4922 133.069 26.3637 133.977 26.6594C134.994 27.0017 137.58 27.0329 137.842 26.706C137.965 26.566 138.012 26.0057 137.981 25.1965L137.935 23.8893L137.396 23.7959C136.811 23.7025 136.148 23.3913 135.979 23.1267C135.917 23.0333 135.856 21.337 135.856 19.3606C135.856 15.2989 135.763 15.5634 137.103 15.5634C137.981 15.5634 138.058 15.4078 137.981 13.9916L137.935 13.1513L136.934 13.0734L135.933 12.9956L135.856 10.8169L135.779 8.63819L133.839 8.5915C132.776 8.57594 131.868 8.60706 131.806 8.65375ZM66.9504 12.7C66.1959 12.9023 65.3183 13.4158 64.7331 14.0228C64.0248 14.7697 63.8401 14.7231 63.7631 13.7738L63.7169 13.1513H59.8674V26.8461L61.8075 26.8772C63.7169 26.9239 63.7631 26.9084 63.8555 26.566C63.9016 26.3792 63.9478 24.4028 63.9478 22.1618C63.9478 17.7266 63.9632 17.6021 64.8717 16.7306C65.2721 16.3415 65.4876 16.2637 66.3499 16.217L67.3508 16.1548L67.9513 16.7928C68.6596 17.5398 68.5826 16.824 68.6442 23.2668C68.6596 24.9786 68.675 26.4882 68.6904 26.6438C68.7212 26.8617 68.9675 26.8928 70.6921 26.8617L72.6476 26.8461V15.9214L72.2011 15.0343C71.4312 13.4936 70.2456 12.7622 68.4286 12.6688C67.7819 12.6533 67.1198 12.6533 66.9504 12.7ZM86.1978 12.7C84.5348 13.1513 83.7341 13.6026 82.7024 14.6297C81.3166 16.0459 80.6853 17.6955 80.6853 19.9209C80.7007 23.827 83.1182 26.7216 86.6905 27.064C89.7393 27.3597 92.0951 26.4571 93.6041 24.4184C93.8197 24.1227 94.2816 23.1734 94.2816 23.0022C94.2816 22.94 93.3886 22.8777 92.3107 22.8777H90.3398L89.8779 23.3601C89.3389 23.9204 88.5844 24.2783 87.8915 24.2783C87.1986 24.2783 86.1362 23.7803 85.6434 23.2512C85.2739 22.831 84.735 21.6172 84.735 21.197C84.735 21.0569 85.859 21.0102 89.4775 21.0102C92.0797 21.0102 94.2816 20.948 94.3894 20.8857C94.6204 20.7301 94.4048 18.2557 94.0661 17.3531C93.3732 15.47 92.0643 13.8827 90.7401 13.3224C90.3552 13.1668 89.9086 12.9645 89.7547 12.8867C89.4313 12.7155 86.6905 12.5755 86.1978 12.7ZM89.2003 16.1081C89.8009 16.5283 90.3244 17.5243 90.2474 18.0845C90.2012 18.4425 90.1704 18.4425 87.5682 18.4891C84.5656 18.5358 84.5502 18.5203 85.0275 17.3998C85.3663 16.6217 86.0438 15.9214 86.6751 15.719C87.3988 15.4856 88.569 15.6724 89.2003 16.1081ZM108.987 12.7C107.2 13.1824 105.953 13.9761 104.983 15.2055C104.598 15.7035 104.29 16.1704 104.29 16.2637C104.29 16.3415 104.182 16.6217 104.044 16.8862C103.905 17.1352 103.705 17.9133 103.597 18.6136C103.058 21.944 104.537 25.0564 107.308 26.4571L108.371 27.0017H110.603C112.913 27.0017 113.113 26.955 114.53 26.1925C115.561 25.6322 117.255 23.4535 116.993 23.0178C116.932 22.94 116.054 22.8777 115.023 22.8777H113.129L112.744 23.329C111.204 25.0876 108.324 24.1849 107.709 21.7417C107.616 21.4149 107.616 21.1347 107.693 21.0725C107.77 21.0258 109.972 20.9947 112.605 21.0102C116.362 21.0102 117.378 20.9791 117.394 20.8235C117.532 18.8782 116.609 15.9992 115.454 14.7542C114.807 14.0539 113.683 13.2758 113.129 13.1357C112.882 13.0734 112.605 12.9645 112.497 12.8867C112.282 12.7155 109.464 12.5755 108.987 12.7ZM111.389 15.7346C112.082 15.9836 112.882 16.8551 113.005 17.5243C113.19 18.5358 113.206 18.5358 110.342 18.4891C107.77 18.4425 107.755 18.4425 107.709 18.0845C107.647 17.6488 108.186 16.575 108.648 16.1704C109.31 15.6101 110.465 15.4234 111.389 15.7346ZM122.383 12.7C119.226 13.4625 118.087 14.5986 118.071 16.964C118.071 19.5163 119.334 20.5901 123.076 21.2592C125.647 21.7105 126.386 22.1152 126.355 23.0956C126.34 23.7959 125.863 24.2472 124.908 24.4495C123.707 24.7141 122.768 24.4184 122.013 23.5625L121.413 22.8777H119.55C118.041 22.8777 117.686 22.9244 117.686 23.0956C117.686 23.5469 118.302 24.7296 118.81 25.321C119.288 25.8346 119.657 26.0836 121.105 26.7839C121.243 26.8617 121.998 26.9862 122.752 27.0795C124.153 27.2507 126.586 27.0951 127.202 26.7839C127.341 26.7216 127.741 26.5193 128.08 26.3637C128.958 25.9435 129.789 24.9942 130.097 24.0916C130.436 23.0645 130.343 21.6327 129.866 20.6367C129.296 19.4696 127.787 18.6292 125.539 18.2246C122.644 17.711 122.598 17.6955 122.136 17.2442C121.582 16.6683 121.582 16.466 122.136 15.8435C122.583 15.3455 122.614 15.33 123.846 15.33C125.077 15.33 125.108 15.3455 125.555 15.8435C125.801 16.1237 126.001 16.4505 126.001 16.575C126.001 16.7617 126.325 16.8084 127.926 16.8084C130.051 16.8084 129.989 16.8551 129.62 15.7502C128.942 13.7893 127.202 12.7933 124.307 12.6844C123.414 12.6533 122.552 12.6533 122.383 12.7ZM101.904 13.0268C101.226 13.2602 100.287 14.0383 99.9942 14.5986C99.7017 15.1588 99.4399 14.9254 99.3629 13.9916L99.2859 13.1513H95.4365L95.3903 19.6874C95.3749 23.2823 95.3903 26.3792 95.4365 26.5816C95.5135 26.9239 95.5597 26.9239 97.4074 26.8928C98.4699 26.8772 99.3321 26.7839 99.3937 26.6905C99.4553 26.6127 99.5169 24.9631 99.5169 23.0333C99.5169 19.9831 99.5477 19.4384 99.8095 18.7537C100.348 17.3375 101.503 16.4972 102.951 16.4972C103.351 16.4972 103.52 16.4193 103.567 16.217C103.674 15.7657 103.69 13.6648 103.597 13.1979C103.505 12.8245 103.428 12.7622 103.012 12.7778C102.735 12.7933 102.242 12.9023 101.904 13.0268ZM54.4782 13.2602C54.432 13.3691 54.4166 16.4349 54.432 20.0765L54.4782 26.6905L56.3105 26.7683C57.4192 26.815 58.2198 26.7839 58.343 26.6905C58.5124 26.566 58.5586 25.2432 58.5586 19.952C58.574 16.3415 58.5278 13.3069 58.4816 13.2291C58.3276 12.9956 54.5551 13.0268 54.4782 13.2602Z" fill="#0A0A0A"/>
</svg>
