<svg width="78" height="78" viewBox="0 0 78 78" fill="none" xmlns="http://www.w3.org/2000/svg">
<rect width="78" height="78" fill="#FFCA43"/>
<path d="M48.0674 14.1553C49.1222 14.1528 49.9563 14.9723 49.9587 16.0649L49.9612 17.9273C56.805 18.4637 61.3259 23.1272 61.3332 30.2789L61.3602 51.2126C61.37 59.0099 56.4714 63.8076 48.6194 63.82L29.4394 63.8448C21.6364 63.8547 16.6765 58.9429 16.6667 51.1232L16.6397 30.4354C16.6299 23.2365 20.9913 18.5854 27.8351 17.9571L27.8327 16.0947C27.8302 15.0021 28.6397 14.1801 29.719 14.1801C30.7984 14.1776 31.6079 14.9971 31.6103 16.0897L31.6128 17.828L46.1836 17.8081L46.1811 16.0699C46.1786 14.9772 46.9881 14.1578 48.0674 14.1553ZM49.0683 49.4147H49.0437C47.9154 49.442 47.0102 50.3882 47.0347 51.5304C47.0372 52.6727 47.9473 53.6139 49.0756 53.6387C50.2261 53.6362 51.1582 52.6901 51.1558 51.523C51.1558 50.3559 50.2212 49.4147 49.0683 49.4147ZM28.8556 49.4172C27.7272 49.4669 26.8441 50.413 26.8466 51.5553C26.8981 52.6976 27.8302 53.5915 28.9586 53.5394C30.0649 53.4897 30.9455 52.5436 30.894 51.4013C30.8695 50.2839 29.9594 49.4147 28.8556 49.4172ZM38.9619 49.4048C37.8336 49.4569 36.9529 50.4006 36.9529 51.5429C37.0044 52.6852 37.9366 53.5766 39.065 53.527C40.1688 53.4748 41.0519 52.5312 41.0004 51.3864C40.9758 50.2714 40.0658 49.4023 38.9619 49.4048ZM28.8433 40.4776C27.715 40.5272 26.8343 41.4733 26.8368 42.6156C26.8858 43.7579 27.8204 44.6519 28.9488 44.5997C30.0527 44.5501 30.9333 43.604 30.8818 42.4617C30.8572 41.3442 29.9496 40.4751 28.8433 40.4776ZM38.9521 40.3907C37.8237 40.4403 36.9407 41.3864 36.9431 42.5287C36.9922 43.671 37.9268 44.5625 39.0551 44.5128C40.159 44.4607 41.0396 43.517 40.9906 42.3748C40.9636 41.2573 40.056 40.3882 38.9521 40.3907ZM49.0585 40.4031C47.9301 40.4279 47.047 41.3467 47.0495 42.489V42.5163C47.074 43.6586 48.0061 44.5252 49.137 44.5004C50.2408 44.4731 51.1214 43.527 51.0969 42.3847C51.0454 41.2921 50.1599 40.4006 49.0585 40.4031ZM46.1885 21.6323L31.6177 21.6522L31.6201 23.6611C31.6201 24.7314 30.8131 25.5757 29.7338 25.5757C28.6544 25.5782 27.8425 24.7363 27.8425 23.6661L27.8401 21.754C23.0567 22.2332 20.4099 25.0443 20.4173 30.4304L20.4197 31.2027L57.5581 31.153V30.2839C57.4526 24.9449 54.7739 22.1439 49.9661 21.7267L49.9685 23.6388C49.9685 24.7065 49.137 25.5533 48.0822 25.5533C47.0028 25.5558 46.1909 24.7115 46.1909 23.6437L46.1885 21.6323Z" fill="white"/>
</svg>
