<svg width="56" height="56" viewBox="0 0 56 56" fill="none" xmlns="http://www.w3.org/2000/svg">
<rect width="56" height="56" fill="#4B84FF"/>
<path d="M34.7441 14.314C34.6775 14.7303 34.6442 15.1465 34.6442 15.5628C34.6442 19.309 37.6745 22.3376 41.4041 22.3376C41.8203 22.3376 42.2199 22.2893 42.6362 22.2227V35.6575C42.6362 41.3034 39.3062 44.65 33.6452 44.65H21.3427C15.6801 44.65 12.3501 41.3034 12.3501 35.6575V23.3382C12.3501 17.6773 15.6801 14.314 21.3427 14.314H34.7441ZM35.0788 24.4371C34.6276 24.3872 34.1797 24.587 33.9116 24.9533L29.884 30.1647L25.2704 26.535C24.9873 26.3186 24.6543 26.2336 24.3213 26.2686C23.99 26.3186 23.6903 26.5 23.4888 26.7664L18.5622 33.1783L18.4606 33.3281C18.1775 33.8593 18.3107 34.5419 18.8102 34.9099C19.0433 35.0597 19.2931 35.1596 19.5761 35.1596C19.9607 35.1763 20.3254 34.9748 20.5585 34.6601L24.7376 29.2806L29.4828 32.8453L29.6326 32.9435C30.1654 33.2266 30.8314 33.095 31.2144 32.5939L36.0262 26.3852L35.9596 26.4185C36.226 26.0522 36.2759 25.586 36.0928 25.1697C35.9113 24.7535 35.51 24.4704 35.0788 24.4371ZM41.6373 11.3499C43.8518 11.3499 45.6499 13.148 45.6499 15.3625C45.6499 17.5769 43.8518 19.3751 41.6373 19.3751C39.4229 19.3751 37.6247 17.5769 37.6247 15.3625C37.6247 13.148 39.4229 11.3499 41.6373 11.3499Z" fill="white"/>
</svg>
