<svg width="78" height="78" viewBox="0 0 78 78" fill="none" xmlns="http://www.w3.org/2000/svg">
<rect width="78" height="78" fill="#4B84FF"/>
<path d="M33.5602 46.6483L43.2693 46.678C43.8747 46.6801 44.3648 47.1871 44.3648 47.8086V53.2707C44.3648 53.8943 44.0107 54.4585 43.4588 54.7194L34.6454 58.8579C34.4395 58.9533 34.2212 59 34.0029 59C33.7126 59 33.4222 58.9152 33.169 58.7476C32.7262 58.4549 32.4585 57.95 32.4585 57.4091V47.7789C32.4585 47.1531 32.9527 46.6462 33.5602 46.6483ZM54.7436 19C57.0952 19 59 20.9621 59 23.3845V26.4475C59 27.6227 58.5408 28.7511 57.7254 29.5742L44.7153 42.734C44.4909 42.9631 44.1861 43.0904 43.871 43.0883L32.9779 43.0543C32.6463 43.0543 32.3313 42.9122 32.1048 42.664L20.149 29.5148C19.4098 28.7023 19 27.629 19 26.5154V23.3866C19 20.9642 20.9048 19 23.2564 19H54.7436Z" fill="white"/>
</svg>
