<svg width="134" height="28" viewBox="0 0 134 28" fill="none" xmlns="http://www.w3.org/2000/svg">
<path d="M8.68847 26.6898H3.65092V13.9976H0.219238V9.8653H3.65078V6.92485C3.65078 3.44042 5.16856 0.941406 10.1925 0.941406C11.255 0.941406 12.9232 1.15787 12.9232 1.15787V4.99496H11.1711C9.3858 4.99496 8.68874 5.54381 8.68874 7.06119V9.8653H12.8564L12.4853 13.9976H8.68861L8.68847 26.6898ZM20.2473 9.53507C20.1739 9.53507 20.0983 9.53777 20.0236 9.53966C15.3525 9.53966 13.2153 13.0908 13.2153 18.1318C13.2153 24.4821 15.9875 27.0237 20.0601 27.0237C22.3902 27.0237 23.9211 26.0325 24.8515 24.1827V26.6916H29.643V9.86705H24.8515V12.4544C24.0918 10.7898 22.5181 9.5548 20.2473 9.53507ZM21.4656 13.5107C23.4275 13.5107 24.605 14.8937 24.605 17.2463L24.6096 19.6491C24.6096 21.2347 23.637 23.0897 21.4656 23.0897C18.1274 23.0897 18.2165 19.4467 18.2165 18.2333C18.2165 14.1518 19.9951 13.5107 21.4656 13.5107ZM31.578 18.2802C31.578 16.2357 31.4812 9.54601 40.1047 9.54601C43.5663 9.54601 45.0118 10.6584 45.0118 10.6584L43.85 14.3003C43.85 14.3003 42.4065 13.4969 40.5254 13.4969C38.1162 13.4969 36.5789 14.9085 36.5789 17.3921L36.5816 19.1729C36.5816 21.5594 38.0649 23.1524 40.5304 23.1524C42.244 23.1524 43.8234 22.3415 43.8234 22.3415L44.9823 25.9072C44.9823 25.9072 43.6606 27.0267 40.1289 27.0267C31.918 27.0267 31.5781 21.0247 31.5781 18.2802H31.578ZM73.1057 9.53966C77.777 9.53966 79.9478 13.0908 79.9478 18.1318C79.9478 24.4821 77.1755 27.0237 73.1029 27.0237C70.7729 27.0237 69.0504 26.0326 68.1199 24.1827V26.6916L63.3888 26.6897V1.45296L68.412 1.01018V12.2265C69.137 10.2642 71.5196 9.53966 73.1059 9.53966H73.1057ZM71.6974 13.5107C69.7355 13.5107 68.412 14.8937 68.412 17.2463L68.4073 19.6491C68.4044 21.2347 69.3239 23.0897 71.6974 23.0897C75.0357 23.0897 74.9465 19.4467 74.9465 18.2333C74.9465 14.1518 73.168 13.5107 71.6974 13.5107ZM53.7276 9.55358C48.4294 9.55358 45.6324 12.4731 45.6324 17.6614V18.6253C45.6324 25.3592 49.5603 27.0929 54.2432 27.0929C58.7949 27.0929 60.8552 25.8062 60.8552 25.8062L59.9152 22.3796C59.9152 22.3796 57.4917 23.4217 54.8455 23.4217C52.1022 23.4217 50.9223 22.7151 50.6199 20.0505H61.2568V17.3015C61.2568 11.6736 58.1177 9.55344 53.7274 9.55344L53.7276 9.55358ZM53.8552 12.9848C55.6892 12.9848 56.8775 14.1214 56.8123 16.7574H50.6292C50.7364 13.983 52.0179 12.9849 53.8552 12.9849V12.9848ZM89.964 9.53047C84.5232 9.53047 81.6589 12.6293 81.6589 18.1825C81.6589 25.8018 86.5963 27.0283 89.9731 27.0283C94.9164 27.0283 98.2051 24.3385 98.2051 18.2517C98.2051 11.9164 94.5073 9.53047 89.964 9.53047ZM89.8955 13.5244C92.2879 13.5244 93.2359 15.3341 93.2359 17.394V19.165C93.2359 21.6603 91.9094 23.1037 89.8864 23.1037C87.9945 23.1037 86.6648 21.7536 86.6648 19.165V17.394C86.6648 14.6332 88.247 13.5244 89.8955 13.5244ZM108.212 9.53047C102.772 9.53047 99.9073 12.6293 99.9073 18.1825C99.9073 25.8018 104.845 27.0283 108.221 27.0283C113.165 27.0283 116.454 24.3385 116.454 18.2517C116.454 11.9164 112.756 9.53047 108.212 9.53047ZM108.144 13.5244C110.536 13.5244 111.484 15.3341 111.484 17.394V19.165C111.484 21.6603 110.158 23.1037 108.135 23.1037C106.243 23.1037 104.913 21.7536 104.913 19.165V17.394C104.913 14.6332 106.495 13.5244 108.144 13.5244ZM118.352 26.6898V1.45296L123.39 1.01018V17.9255L128.388 9.8653H133.708L128.494 18.2133L133.909 26.6898H128.573L123.39 18.4592V26.6898H118.352Z" fill="#0A0A0A"/>
</svg>
