<svg width="125" height="28" viewBox="0 0 125 28" fill="none" xmlns="http://www.w3.org/2000/svg">
<path d="M21.4396 27.7262L13.3729 27.577C10.761 27.5251 8.14269 27.6289 5.58213 27.0906C1.68674 26.2863 1.41079 22.3429 1.12201 19.035C0.724129 14.3846 0.878147 9.64982 1.62899 5.0383C2.05254 2.4504 3.72107 0.906739 6.30088 0.738104C15.0093 0.128423 23.7756 0.199769 32.4648 0.485151C33.3825 0.511095 34.3066 0.653786 35.2114 0.815935C39.678 1.60722 39.7871 6.07605 40.0759 9.83791C40.3646 13.6387 40.2427 17.4589 39.6908 21.2338C39.248 24.36 38.4009 26.9803 34.8264 27.2333C30.347 27.5641 25.9703 27.83 21.4781 27.7457C21.4781 27.7262 21.4525 27.7262 21.4396 27.7262ZM16.6971 19.8133C20.0727 17.8546 23.3841 15.9282 26.7404 13.9824C23.3584 12.0237 20.0534 10.0974 16.6971 8.15156V19.8133Z" fill="#0A0A0A"/>
<path d="M104.779 24.1722C104.625 24.8078 104.49 25.3072 104.356 25.8391H101.198V1.22461H104.882V10.305C105.074 10.0586 105.171 9.95481 105.254 9.84454C105.883 8.96893 106.698 8.39816 107.75 8.17763C109.425 7.84685 110.856 8.59274 111.363 10.2207C111.691 11.2326 111.902 12.3157 111.928 13.3729C111.98 16.0906 111.941 18.8017 111.845 21.5194C111.806 22.3496 111.556 23.1993 111.242 23.9776C110.208 26.5461 106.833 26.9352 105.158 24.7105C105.055 24.5743 104.959 24.4251 104.779 24.1722ZM104.959 17.4008V21.9021C104.959 22.635 105.344 23.0825 106.069 23.2512C106.781 23.4198 107.359 23.1409 107.648 22.4728C107.77 22.1939 107.892 21.9021 107.898 21.6102C107.969 18.8601 108.033 16.11 108.052 13.3535C108.052 12.8411 107.93 12.3092 107.776 11.8098C107.487 10.9083 106.692 10.6423 105.909 11.1677C105.318 11.5698 104.959 12.1406 104.959 12.8995V17.4008ZM94.9477 8.52788H98.8045V25.8521H95.7948C95.6857 25.197 95.5766 24.5224 95.4482 23.7311C95.2429 24.036 95.1209 24.2306 94.9926 24.4251C93.9915 25.8845 92.5732 26.3839 90.8983 26.118C89.4672 25.8845 88.6072 24.7689 88.4147 22.9398C88.357 22.395 88.3313 21.8437 88.3313 21.2989C88.3185 17.2451 88.3313 13.1784 88.3313 9.12459V8.51491H92.2331V9.22188C92.2331 13.1394 92.2202 17.0505 92.2459 20.9681C92.2459 21.5259 92.3037 22.1031 92.3999 22.6609C92.509 23.2317 92.9197 23.4393 93.4716 23.4003C94.3637 23.329 94.9797 22.6609 94.9797 21.7659V9.29323C94.9477 9.04028 94.9477 8.80678 94.9477 8.52788ZM68.3923 8.51491H72.2685V9.24783C72.2685 13.1459 72.2556 17.0375 72.2813 20.9227C72.2813 21.4805 72.3326 22.0577 72.4481 22.6026C72.5958 23.2447 72.968 23.4522 73.6033 23.3679C74.4825 23.2447 75.0151 22.6285 75.0215 21.7269V9.31917V8.54085H78.8784V25.8521H75.8815C75.7724 25.2099 75.6633 24.5484 75.5221 23.7117C75.3296 24.0035 75.2205 24.1722 75.1114 24.3473C74.1103 25.8326 72.7048 26.3774 70.9914 26.1115C69.6181 25.9039 68.7774 24.8792 68.5207 23.1993C68.4501 22.6739 68.3988 22.155 68.3988 21.6297C68.3859 17.4202 68.3859 13.1913 68.3859 8.9819L68.3923 8.51491ZM66.4029 17.764C66.3901 18.3477 66.3516 18.9315 66.3195 19.5152C66.1719 21.2664 66.1013 23.7506 64.7023 25.0283C63.8103 25.8326 62.6808 26.1245 61.5128 26.1634C60.993 26.1764 60.4668 26.1764 59.947 26.105C57.4891 25.7288 56.3468 24.6327 55.9361 21.9021C55.4676 18.7499 55.4291 15.5458 55.9874 12.3936C56.565 9.13108 58.5544 7.97657 61.6476 8.1906C64.5355 8.39816 65.8254 10.3115 66.1655 13.0357C66.3516 14.5988 66.4414 16.1814 66.4029 17.764ZM62.4755 17.1673C62.4755 16.0582 62.5011 14.9426 62.4626 13.8335C62.437 13.1913 62.3535 12.5427 62.2188 11.9071C62.0647 11.1742 61.6027 10.8239 61.0251 10.8369C60.4604 10.8499 60.0625 11.2001 59.8572 11.8812C59.7866 12.1341 59.7096 12.3936 59.7096 12.6465C59.7096 14.3848 59.6967 16.1295 59.6839 17.8678C59.671 19.4893 59.4657 21.1886 59.9727 22.7388C60.1267 23.2122 60.5246 23.4717 61.0444 23.4717C61.5514 23.4717 61.8851 23.2187 62.0712 22.7647C62.2188 22.4145 62.3471 22.0318 62.3471 21.6556C62.392 20.1638 62.4755 18.6655 62.4755 17.1673ZM50.2759 13.9048C50.6161 12.2249 50.9369 10.584 51.2899 8.9365C51.7327 6.84151 52.2268 4.74652 52.6632 2.64505C52.7723 2.13265 52.9777 2.00942 53.459 2.02239C54.4922 2.06131 55.5446 2.03536 56.6484 2.03536C56.2891 3.37149 55.9361 4.64275 55.5896 5.89455C54.4922 9.82508 53.3948 13.7686 52.3103 17.7121C52.2268 18.0169 52.1883 18.3477 52.1883 18.672C52.1755 20.8254 52.1883 22.9723 52.1883 25.1256V25.8261H48.4213C48.4085 25.6315 48.3828 25.437 48.3828 25.2424C48.3828 24.023 48.2865 22.7971 48.3956 21.5907C48.6716 18.6915 47.7603 16.0257 47.0223 13.3275C46.0468 9.76022 45.0586 6.17994 44.0831 2.61262C44.0318 2.44398 44.0125 2.26237 43.9612 2.05482H47.8052C48.6138 5.99184 49.4288 9.92886 50.2759 13.9048ZM123.98 18.4256H117.486C117.556 19.7422 117.582 20.994 117.717 22.2329C117.813 23.0955 118.281 23.4652 119.019 23.4717C119.79 23.4847 120.239 23.0955 120.418 22.2393C120.476 21.9604 120.515 21.6815 120.54 21.3962C120.566 21.1432 120.579 20.8708 120.598 20.5076C121.696 20.5659 122.767 20.6308 123.826 20.6762C124.442 22.5247 123.332 24.8986 121.464 25.6315C119.995 26.2153 118.487 26.2153 116.985 25.7677C115.875 25.437 115.047 24.7235 114.675 23.6274C114.328 22.6026 114.001 21.5324 113.93 20.4622C113.738 17.8224 113.667 15.1566 114.065 12.5103C114.136 12.0693 114.258 11.6477 114.392 11.2196C114.932 9.45538 116.106 8.37221 117.922 8.1906C118.91 8.09331 119.931 8.13223 120.906 8.30087C122.485 8.57977 123.326 9.72779 123.691 11.2326C123.858 11.9395 123.98 12.666 124.006 13.3859C124.012 15.0399 123.98 16.6808 123.98 18.4256ZM120.29 16.149C120.29 14.8453 120.303 13.6194 120.277 12.3871C120.277 12.0952 120.168 11.7904 120.059 11.5115C119.841 10.9666 119.385 10.8174 118.84 10.8174C118.294 10.8174 117.948 11.0963 117.813 11.5958C117.402 13.094 117.537 14.6247 117.55 16.1619C118.532 16.149 119.424 16.149 120.29 16.149Z" fill="#0A0A0A"/>
<path d="M81.8557 5.21416H78.0374V2.08789H89.4347V5.1947H85.642V25.8268H81.8621L81.8557 5.21416Z" fill="#0A0A0A"/>
</svg>
