<svg width="244" height="238" viewBox="0 0 244 238" fill="none" xmlns="http://www.w3.org/2000/svg">
<path d="M73.3498 41.5473C101.774 45.0225 133.224 55.6662 149.765 80.7401C153.955 87.0909 156.428 94.7065 157.14 102.524M157.14 102.524C158.225 114.429 155.222 126.802 147.971 135.886C136.626 150.096 119.167 159.711 101.336 152.381C92.0414 148.56 85.6071 141.144 87.6855 130.61C90.8609 114.517 111.903 104.669 126.391 102.691C136.407 101.324 146.777 101.31 157.14 102.524ZM157.14 102.524C174.863 104.599 218.507 138.196 166.228 199.75" stroke="#0A0A0A" stroke-width="5.5" stroke-linecap="round"/>
<path d="M100.963 24.5479C93.3415 27.3327 76.0511 34.311 67.8627 39.9458" stroke="#0A0A0A" stroke-width="5.5" stroke-linecap="round"/>
<path d="M67.863 39.9458C72.7609 46.4154 83.5142 61.6476 87.3445 70.8199" stroke="#0A0A0A" stroke-width="5.5" stroke-linecap="round"/>
</svg>
