<svg width="78" height="78" viewBox="0 0 78 78" fill="none" xmlns="http://www.w3.org/2000/svg">
<rect width="78" height="78" fill="#4B84FF"/>
<path d="M49.0588 15C56.4724 15 60.6004 19.272 60.6004 26.592V51.384C60.6004 58.824 56.4724 63 49.0588 63H28.9444C21.6484 63 17.4004 58.824 17.4004 51.384V26.592C17.4004 19.272 21.6484 15 28.9444 15H49.0588ZM29.5924 47.976C28.8724 47.904 28.1764 48.24 27.7924 48.864C27.4084 49.464 27.4084 50.256 27.7924 50.88C28.1764 51.48 28.8724 51.84 29.5924 51.744H48.4084C49.366 51.648 50.0884 50.8296 50.0884 49.872C50.0884 48.888 49.366 48.072 48.4084 47.976H29.5924ZM48.4084 37.0296H29.5924C28.558 37.0296 27.7204 37.872 27.7204 38.904C27.7204 39.936 28.558 40.776 29.5924 40.776H48.4084C49.4404 40.776 50.2804 39.936 50.2804 38.904C50.2804 37.872 49.4404 37.0296 48.4084 37.0296ZM36.766 26.16H29.5924V26.184C28.558 26.184 27.7204 27.024 27.7204 28.056C27.7204 29.088 28.558 29.928 29.5924 29.928H36.766C37.8004 29.928 38.6404 29.088 38.6404 28.0296C38.6404 27 37.8004 26.16 36.766 26.16Z" fill="white"/>
</svg>
