<svg width="133" height="34" viewBox="0 0 133 34" fill="none" xmlns="http://www.w3.org/2000/svg">
<path d="M43.5481 13.0784C43.5481 10.7128 41.2477 8.20038 37.267 8.20038C32.7968 8.20038 27.8862 11.4796 27.1357 18.0217C26.3689 24.6291 30.4802 27.5657 34.6241 27.5657C38.7679 27.5657 40.9378 25.9505 43.1565 23.797C41.2477 21.3988 38.7843 22.5082 38.3111 22.7529C37.7891 23.0139 37.1202 23.3729 35.7498 23.3729C34.1509 23.3729 32.5195 22.655 32.5195 19.6695C42.765 18.658 43.5481 15.444 43.5481 13.0784ZM38.4743 13.47C38.409 14.2041 38.1154 15.4603 32.9274 16.1618C34.0204 12.279 36.1087 11.9853 37.0712 11.9853C37.9685 11.9853 38.5395 12.6869 38.4743 13.47ZM21.1157 14.1062C21.1157 14.1062 18.9132 21.0236 18.7338 21.5946C18.6685 21.0072 17.0534 8.59193 17.0534 8.59193C13.301 8.59193 11.2944 11.2675 10.2339 14.0899C10.2339 14.0899 7.55834 21.0236 7.32993 21.6109C7.31362 21.0725 6.92207 14.1715 6.92207 14.1715C6.69367 10.7128 3.52866 8.60824 0.967285 8.60824L4.06704 27.4188C7.99883 27.4025 10.1197 24.7433 11.2291 21.9209C11.2291 21.9209 13.5947 15.8029 13.6926 15.5256C13.7089 15.7866 15.3893 27.4188 15.3893 27.4188C19.3374 27.4188 21.4583 24.9227 22.6003 22.1982L28.1309 8.60824C24.2317 8.60824 22.1761 11.2675 21.1157 14.1062ZM58.0353 8.16775C55.6045 8.16775 53.7446 9.48923 52.1784 11.4306V11.4143L53.5815 0.108398C50.3512 0.108398 47.7246 2.91449 47.2188 7.091L44.7717 27.272C46.6315 27.272 48.6056 26.7336 49.666 25.3632C50.6123 26.5868 52.0316 27.5657 54.1362 27.5657C59.5852 27.5657 63.3212 21.2357 63.3212 15.2972C63.2886 9.88077 60.662 8.16775 58.0353 8.16775ZM57.5296 17.8749C56.9586 21.1867 55.115 23.4381 53.3368 23.4381C51.5422 23.4381 50.7754 22.6387 50.7754 22.6387C51.118 19.7347 51.3301 17.9564 51.9827 16.4229C52.6353 14.8893 54.1851 12.4421 55.8003 12.4421C57.3828 12.4421 58.1006 14.5467 57.5296 17.8749ZM76.9275 8.60824H73.1262L73.1425 8.41247C73.4036 5.93267 73.9909 4.62751 75.9323 4.41542C77.2538 4.28491 77.8411 3.5997 77.988 2.84923C78.1021 2.26191 78.4611 0.2226 78.4611 0.2226C70.8259 0.173656 68.4277 3.46918 67.8077 8.49404L67.7914 8.60824H67.7098C66.4699 8.60824 65.0995 10.0113 64.8711 11.7896L64.7895 12.4421H67.3346L65.1974 30.0944L64.5448 33.2594C64.6264 33.2594 64.7243 33.2757 64.8058 33.2757C68.3787 33.1452 70.6628 30.3228 71.1685 26.2279L72.8326 12.4421H74.0235C75.1982 12.4421 76.5686 11.2675 76.8133 9.30977L76.9275 8.60824ZM96.7007 8.28195C92.3121 8.28195 88.1682 11.5122 86.8957 16.586C85.6231 21.6598 87.5482 27.6636 94.0088 27.6636C100.453 27.6636 104.173 21.4151 104.173 16.2108C104.173 11.0391 100.665 8.28195 96.7007 8.28195ZM98.4789 17.7117C98.2505 20.0121 97.239 23.5034 94.4656 23.5034C91.6758 23.5034 92.0673 19.4247 92.3447 17.4833C92.6384 15.4114 93.7967 12.4585 96.2928 12.4585C98.5279 12.4585 98.74 15.1177 98.4789 17.7117ZM125.855 14.1062C125.855 14.1062 123.652 21.0236 123.473 21.5946C123.407 21.0072 121.792 8.59193 121.792 8.59193C118.04 8.59193 116.033 11.2675 114.973 14.0899C114.973 14.0899 112.297 21.0236 112.069 21.6109C112.053 21.0725 111.661 14.1715 111.661 14.1715C111.433 10.7128 108.268 8.60824 105.706 8.60824L108.79 27.4188C112.721 27.4025 114.842 24.7433 115.952 21.9209C115.952 21.9209 118.317 15.8029 118.399 15.5256C118.432 15.7866 120.096 27.4188 120.096 27.4188C124.044 27.4188 126.165 24.9227 127.307 22.1982L132.837 8.60824C128.954 8.60824 126.899 11.2675 125.855 14.1062ZM80.5167 0.2226L77.3191 26.0158L76.6665 29.1971C76.748 29.1971 76.8459 29.2134 76.9275 29.2134C80.3699 29.1645 82.817 26.1463 83.2738 22.345L85.1174 7.5478C85.6721 3.02869 82.9802 0.2226 80.5167 0.2226Z" fill="#0A0A0A"/>
</svg>
