<svg width="339" height="241" viewBox="0 0 339 241" fill="none" xmlns="http://www.w3.org/2000/svg">
<path d="M317.578 144.44C253.551 175.268 234.782 167.908 213.477 152.4C208.081 148.472 203.705 142.977 200.715 136.775M200.715 136.775C196.16 127.328 194.819 116.24 197.98 106.546C202.926 91.3807 214.31 78.1091 231.214 78.6437C240.025 78.9223 247.593 83.0342 249.128 92.3272C251.472 106.525 237.216 121.091 225.924 127.174C218.116 131.379 209.601 134.582 200.715 136.775ZM20.1571 121.827C41.9058 134.398 69.5591 143.545 94.3851 134.711C100.673 132.474 106.427 128.444 111.053 123.343M111.053 123.343C118.098 115.575 122.527 105.321 122.242 95.129C121.796 79.1836 114.64 63.23 98.2775 58.952C89.7486 56.7222 81.3255 58.5208 77.2206 66.9979C70.9492 79.9491 80.4922 97.958 89.5981 106.992C95.8939 113.238 103.152 118.722 111.053 123.343ZM111.053 123.343C138.815 139.581 171.18 146.445 200.999 136.916" stroke="#0A0A0A" stroke-width="5.5" stroke-linecap="round"/>
<path d="M30.2646 147.689C26.3951 141.714 17.9656 127.697 15.2037 119.426" stroke="#0A0A0A" stroke-width="5.5" stroke-linecap="round"/>
<path d="M15.2041 119.426C22.0511 117.479 37.6265 112.484 45.1524 108.08" stroke="#0A0A0A" stroke-width="5.5" stroke-linecap="round"/>
</svg>
